<svg version="1.1" id="Layer_1" xmlns="http://www.w3.org/2000/svg" xmlns:xlink="http://www.w3.org/1999/xlink" x="0px" y="0px"
	 width="100%" viewBox="0 0 4500 4500" enable-background="new 0 0 4500 4500" xml:space="preserve">
<path fill="#FFFFFF" opacity="1.000000" stroke="none" 
	d="
M3084.000000,4504.000000 
	C2056.000000,4504.000000 1030.000000,4504.000000 4.000000,4504.000000 
	C4.000000,3004.000000 4.000000,1504.000000 4.000000,4.000001 
	C1504.000000,4.000000 3004.000000,4.000000 4504.000000,4.000000 
	C4504.000000,1504.000000 4504.000000,3004.000000 4504.000000,4504.000000 
	C4031.333252,4504.000000 3558.666748,4504.000000 3084.000000,4504.000000 
M1325.499634,1244.921265 
	C1322.393433,1248.404175 1319.270996,1251.872681 1316.183350,1255.371948 
	C1218.420044,1366.166260 1183.368042,1521.642212 1228.158936,1666.708862 
	C1249.412109,1735.542847 1286.137085,1795.021362 1337.096558,1845.860962 
	C1415.417236,1923.996948 1493.647583,2002.223511 1571.892700,2080.435059 
	C1690.674927,2199.166260 1809.432373,2317.922363 1928.222534,2436.645264 
	C1933.344238,2441.764160 1938.687988,2446.660645 1943.788940,2451.528076 
	C1957.217285,2441.410156 2050.442627,2348.540527 2062.390137,2333.356934 
	C2057.035889,2327.836670 2051.627197,2322.110352 2046.060059,2316.542480 
	C1848.614380,2119.075195 1650.570435,1922.201538 1453.922852,1723.942505 
	C1343.356445,1612.469971 1298.261353,1476.943726 1315.421631,1320.956665 
	C1317.670288,1300.515747 1322.752563,1280.389526 1326.422119,1260.099487 
	C1327.448242,1254.425293 1330.918945,1248.703247 1327.028809,1242.619629 
	C1327.028809,1242.619629 1327.286743,1243.327637 1327.286743,1243.327637 
	C1327.286743,1243.327637 1326.995239,1242.678833 1325.499634,1244.921265 
M1504.632080,2930.751953 
	C1503.637573,2930.470459 1502.642944,2930.188965 1501.648438,2929.907471 
	C1502.442627,2930.602783 1503.236938,2931.298096 1504.461426,2934.678467 
	C1611.998779,3032.187012 1737.800659,3067.647461 1880.011108,3042.052979 
	C1967.005005,3026.396240 2041.193726,2984.759277 2103.726807,2922.076904 
	C2242.622559,2782.848877 2381.815918,2643.917236 2520.858398,2504.835449 
	C2579.303223,2446.374023 2637.682129,2387.846680 2696.064697,2329.322998 
	C2700.713135,2324.663330 2705.155518,2319.798340 2709.571045,2315.157227 
	C2697.436035,2299.464600 2604.396240,2206.918213 2591.068115,2197.288330 
	C2585.987305,2202.163330 2580.670898,2207.083740 2575.552246,2212.201660 
	C2382.262695,2405.459473 2188.993408,2598.737549 1995.708618,2792.000000 
	C1987.695190,2800.012695 1979.730469,2808.086182 1971.451782,2815.819336 
	C1885.307373,2896.286377 1783.086548,2939.750244 1665.704102,2947.242188 
	C1616.874390,2950.358643 1568.531006,2945.507080 1520.963013,2933.622070 
	C1515.335571,2932.216064 1509.644165,2929.367676 1504.632080,2930.751953 
M2772.251465,1977.748779 
	C2853.786377,2059.286377 2935.707764,2140.442383 3016.731934,2222.484375 
	C3080.092529,2286.641113 3104.649170,2364.850098 3090.569580,2453.222900 
	C3076.169678,2543.604492 3024.748535,2608.640137 2943.786133,2650.667480 
	C2918.123047,2663.989258 2889.893555,2669.703125 2862.643311,2678.320312 
	C2860.837646,2678.891357 2858.313721,2679.448242 2856.907471,2678.643066 
	C2849.861084,2674.607910 2842.492920,2677.503418 2835.309814,2677.109863 
	C2819.355713,2676.235596 2803.187988,2676.836426 2787.474121,2674.435059 
	C2728.301270,2665.393555 2677.615479,2639.226074 2635.516846,2596.523193 
	C2618.203125,2578.960938 2600.680908,2561.603516 2583.192383,2544.214355 
	C2579.994141,2541.034424 2576.500977,2538.151367 2573.311523,2535.282227 
	C2558.269287,2546.466797 2469.830322,2635.036621 2459.503662,2649.258301 
	C2462.416260,2652.450195 2465.348145,2655.925293 2468.549805,2659.131592 
	C2504.813477,2695.451660 2540.901123,2731.950684 2577.453369,2767.978516 
	C2682.023438,2871.047607 2830.021484,2912.927734 2973.556152,2880.708984 
	C3221.347900,2825.088379 3371.583984,2564.414795 3282.381592,2314.780029 
	C3260.507324,2253.563721 3225.339111,2200.707764 3179.340820,2154.804932 
	C3039.212891,2014.967651 2899.269043,1874.945190 2759.248291,1735.000000 
	C2701.260254,1677.043457 2643.272705,1619.086060 2585.232910,1561.181030 
	C2581.153076,1557.110840 2576.642334,1553.472900 2571.932617,1549.278320 
	C2568.031982,1552.910278 2565.062256,1555.499756 2562.288818,1558.284424 
	C2528.431396,1592.281738 2494.601562,1626.306152 2460.783203,1660.342529 
	C2460.332031,1660.796631 2459.961914,1661.467407 2459.854980,1662.088867 
	C2459.750244,1662.697510 2460.031250,1663.372559 2460.482178,1665.979614 
	C2562.970459,1768.467773 2666.611084,1872.108276 2772.251465,1977.748779 
M1532.280151,2190.273926 
	C1537.941895,2184.612061 1543.668823,2179.013672 1549.246460,2173.269775 
	C1554.719360,2167.634277 1560.904053,2162.576904 1565.799194,2154.931396 
	C1547.069458,2135.135498 1528.084717,2116.583740 1509.229370,2097.927246 
	C1490.434937,2079.330566 1472.554932,2059.747070 1452.505981,2042.406860 
	C1449.818848,2044.228394 1447.995728,2045.087036 1446.654907,2046.427979 
	C1405.652832,2087.436279 1362.946655,2126.906738 1324.076294,2169.848145 
	C1221.403320,2283.275635 1186.409546,2416.434326 1221.882812,2564.878662 
	C1273.061401,2779.046387 1476.859619,2911.816162 1683.098877,2889.019287 
	C1760.435547,2880.470703 1830.276245,2853.660156 1893.011963,2807.912598 
	C1914.623657,2792.153564 1933.943115,2773.816895 1952.816040,2754.935303 
	C2144.135254,2563.527100 2335.516846,2372.181152 2526.879150,2180.815918 
	C2532.534912,2175.159912 2538.296875,2169.601074 2543.746582,2163.751953 
	C2546.312500,2160.998047 2548.253906,2157.662109 2550.336914,2154.784668 
	C2531.539307,2133.515869 2449.387451,2052.144531 2436.855713,2042.451538 
	C2432.641357,2046.345337 2428.150146,2050.218750 2423.967041,2054.400146 
	C2275.462402,2202.836914 2126.988281,2351.304688 1978.505127,2499.762939 
	C1945.037109,2533.225098 1911.897339,2567.024902 1877.995239,2600.041504 
	C1815.156494,2661.238770 1739.172119,2686.524658 1652.933350,2674.655518 
	C1515.925171,2655.798828 1424.045532,2539.332275 1423.116333,2415.042969 
	C1422.561035,2340.756348 1447.715942,2276.893799 1499.207275,2223.417969 
	C1509.376953,2212.856201 1519.912720,2202.646729 1532.280151,2190.273926 
M2144.422363,2105.578125 
	C2023.836182,1984.889893 1903.259033,1864.192871 1782.659058,1743.518433 
	C1741.202026,1702.035889 1698.951416,1661.316650 1658.368896,1618.996704 
	C1593.944580,1551.814453 1570.447388,1471.633545 1587.218872,1380.051880 
	C1606.914795,1272.500244 1701.150269,1170.435059 1839.320435,1165.122437 
	C1914.768921,1162.221558 1980.510010,1187.921997 2035.084106,1240.601562 
	C2054.740479,1259.575684 2073.769775,1279.199097 2093.129395,1298.482056 
	C2096.326904,1301.666992 2099.750977,1304.624634 2102.926025,1307.554077 
	C2117.279541,1296.462158 2206.135986,1207.706299 2216.661865,1194.107788 
	C2215.675293,1192.526855 2214.916260,1190.600708 2213.572754,1189.260742 
	C2171.576416,1147.378662 2131.042480,1103.880005 2087.170166,1064.059937 
	C1988.160156,974.194946 1871.018188,938.284058 1738.473389,955.510803 
	C1638.316772,968.528137 1552.868530,1012.513184 1484.578613,1086.740723 
	C1383.730225,1196.357300 1348.704346,1325.747925 1377.706421,1471.454224 
	C1394.118408,1553.908691 1434.337646,1624.592651 1493.765503,1684.139160 
	C1567.207031,1757.727539 1640.774292,1831.190552 1714.288208,1904.706665 
	C1838.696777,2029.118286 1963.100586,2153.534668 2087.533447,2277.921875 
	C2092.603027,2282.989502 2097.948486,2287.781006 2102.700195,2292.262695 
	C2105.210938,2291.238281 2106.714844,2291.060059 2107.556396,2290.218750 
	C2143.368408,2254.416504 2179.122803,2218.556641 2214.864502,2182.684326 
	C2215.305908,2182.241455 2215.589600,2181.572021 2215.768555,2180.956299 
	C2215.950684,2180.328613 2215.912598,2179.636475 2216.108154,2177.411377 
	C2193.361572,2154.616699 2169.892090,2131.097168 2144.422363,2105.578125 
M2861.186523,1756.812988 
	C2875.795654,1771.356201 2890.404785,1785.899414 2905.485352,1800.911865 
	C2908.743408,1798.259155 2911.443848,1796.424561 2913.713379,1794.158691 
	C2952.394531,1755.538452 2992.098145,1717.872681 3029.453125,1678.006958 
	C3128.028076,1572.805664 3165.447754,1447.823608 3142.546143,1305.978027 
	C3128.239502,1217.365845 3087.373047,1141.224976 3023.985352,1077.274292 
	C2913.453369,965.760376 2753.785156,925.858521 2605.722168,966.190857 
	C2532.093506,986.247253 2468.697754,1024.031372 2414.822021,1078.043091 
	C2309.372559,1183.757690 2203.824463,1289.374268 2098.276611,1394.990356 
	C2005.450439,1487.876465 1912.561768,1580.700073 1819.730103,1673.580688 
	C1815.603149,1677.709839 1811.767822,1682.130615 1807.913086,1686.289917 
	C1820.276123,1702.063843 1908.684570,1790.190430 1922.048340,1800.051514 
	C1927.144043,1795.132080 1932.432739,1790.182251 1937.551270,1785.062500 
	C2113.342041,1609.225830 2289.115479,1433.372070 2464.896973,1257.526489 
	C2471.494629,1250.926636 2477.913574,1244.125000 2484.811279,1237.852051 
	C2550.720215,1177.912231 2628.233398,1153.585083 2715.583496,1169.664795 
	C2810.969971,1187.223755 2878.062500,1242.952881 2915.738037,1332.621826 
	C2923.954102,1352.175659 2929.063232,1373.044678 2935.375000,1393.378906 
	C2936.332031,1396.461914 2936.303467,1399.935791 2936.267578,1403.223755 
	C2936.202881,1409.144775 2935.460449,1415.068115 2935.568848,1420.980103 
	C2936.994873,1498.796387 2911.409912,1565.969849 2856.570557,1621.583130 
	C2838.319336,1640.092163 2819.735840,1658.273438 2801.469238,1676.767578 
	C2798.393555,1679.881714 2793.937012,1682.272339 2793.799316,1687.574829 
	C2794.436279,1688.729858 2794.850098,1690.106567 2795.743164,1691.007690 
	C2816.859375,1712.307251 2838.027588,1733.555542 2861.186523,1756.812988 
M2478.241943,1324.241699 
	C2406.605713,1395.877808 2334.959717,1467.503906 2263.336426,1539.152588 
	C2167.679688,1634.842773 2072.020996,1730.531128 1976.449951,1826.306763 
	C1971.497070,1831.270142 1965.133423,1835.343506 1962.975708,1842.073608 
	C1964.293091,1844.121704 1964.836914,1845.408203 1965.751587,1846.324951 
	C2001.994507,1882.659058 2038.253784,1918.976807 2074.597412,1955.210327 
	C2076.302734,1956.910400 2078.796387,1957.819580 2082.759521,1960.200684 
	C2087.842773,1954.286377 2092.288086,1948.387939 2097.456055,1943.210815 
	C2180.799805,1859.716431 2264.238281,1776.316528 2347.649902,1692.889526 
	C2443.785645,1596.735718 2539.905029,1500.565918 2636.052490,1404.423950 
	C2690.690186,1349.789307 2756.700439,1323.057495 2833.931152,1323.930664 
	C2837.718262,1323.973511 2841.506592,1323.936157 2844.868652,1323.936157 
	C2845.501465,1322.066406 2846.008057,1321.360474 2845.870117,1320.818848 
	C2845.552002,1319.569336 2845.106445,1318.274048 2844.390625,1317.214966 
	C2801.094971,1253.142090 2740.072754,1220.955444 2663.439941,1221.681763 
	C2606.515625,1222.221191 2557.285400,1244.593506 2516.993896,1285.471436 
	C2504.829590,1297.813110 2492.497314,1309.989502 2478.241943,1324.241699 
M2524.318848,1809.681519 
	C2506.876709,1792.239380 2489.480957,1774.750244 2471.979004,1757.368286 
	C2454.134521,1739.645996 2436.677002,1721.513062 2417.571777,1703.426270 
	C2403.319092,1717.541260 2390.069336,1730.615112 2376.874268,1743.744263 
	C2364.114990,1756.439819 2351.267334,1769.051270 2338.725342,1781.958984 
	C2325.878906,1795.179688 2311.735596,1807.220215 2300.308594,1822.202026 
	C2303.541260,1825.810913 2306.061768,1828.906006 2308.867676,1831.716187 
	C2427.092529,1950.121948 2545.315674,2068.529541 2663.600830,2186.875244 
	C2727.692383,2250.999512 2792.063965,2314.844482 2855.993896,2379.129150 
	C2909.375000,2432.806396 2935.460205,2497.922607 2935.617188,2573.528809 
	C2935.626465,2577.969238 2935.618408,2582.409668 2935.618408,2586.520752 
	C2942.559082,2588.458740 2945.622803,2584.135986 2949.200684,2581.613770 
	C3042.866455,2515.586670 3065.970459,2384.624756 3000.140381,2290.651611 
	C2991.026123,2277.640625 2980.094727,2265.697754 2968.841797,2254.420654 
	C2821.456299,2106.718994 2673.861328,1959.226440 2524.318848,1809.681519 
M2306.859619,3538.000488 
	C2306.870850,3517.358398 2306.745361,3496.714355 2307.020752,3476.075684 
	C2307.069824,3472.405029 2308.783691,3468.756348 2309.761230,3464.972168 
	C2321.177002,3464.666016 2331.663574,3462.541504 2342.904297,3467.066162 
	C2343.162354,3473.985352 2343.604980,3480.505127 2343.616455,3487.025635 
	C2343.684814,3525.646484 2343.593994,3564.267822 2343.739502,3602.888184 
	C2343.755859,3607.238281 2344.919189,3611.584473 2345.601807,3616.285156 
	C2385.523193,3616.285156 2424.130371,3616.321289 2462.737305,3616.197754 
	C2465.123779,3616.189941 2467.506104,3614.928467 2470.859375,3613.974609 
	C2470.859375,3608.000977 2470.859375,3602.761719 2470.859375,3597.522705 
	C2470.859375,3488.318604 2470.860107,3379.114746 2470.857422,3269.910645 
	C2470.857178,3266.581543 2471.036621,3263.235107 2470.769531,3259.926025 
	C2469.157959,3239.944824 2459.162109,3226.163330 2439.830566,3220.243408 
	C2432.284424,3217.932617 2424.212646,3216.222412 2416.368896,3216.175049 
	C2355.782715,3215.808594 2295.193115,3215.801758 2234.605957,3216.030762 
	C2227.397949,3216.058105 2220.134766,3217.877441 2213.005859,3219.380859 
	C2194.586914,3223.264648 2179.323486,3239.584961 2179.426514,3262.882324 
	C2179.929443,3376.745361 2179.640625,3490.611572 2179.736816,3604.476807 
	C2179.739990,3608.195312 2180.872803,3611.913086 2181.434570,3615.357910 
	C2221.312988,3618.231934 2291.929443,3617.149170 2306.842041,3613.165039 
	C2306.847656,3589.726318 2306.853516,3565.862305 2306.859619,3538.000488 
M1338.854004,3534.004395 
	C1338.865356,3514.680420 1338.729736,3495.354492 1339.017456,3476.034668 
	C1339.072144,3472.366699 1340.804199,3468.723877 1341.771240,3465.034912 
	C1353.285034,3464.390381 1363.754639,3463.152344 1375.396851,3466.301025 
	C1375.719482,3473.356934 1376.258423,3479.834473 1376.272095,3486.312988 
	C1376.354126,3524.960693 1376.261597,3563.608643 1376.389771,3602.255859 
	C1376.404297,3606.666260 1377.429077,3611.073730 1378.096680,3616.363770 
	C1384.481201,3616.363770 1389.762939,3616.386230 1395.044434,3616.360107 
	C1429.679443,3616.189941 1464.314575,3616.012451 1498.949463,3615.810303 
	C1499.576904,3615.806641 1500.281006,3615.597168 1500.807373,3615.261719 
	C1501.347900,3614.916992 1501.714233,3614.299316 1503.296997,3612.518066 
	C1503.398804,3609.297607 1503.667114,3604.754883 1503.667969,3600.212402 
	C1503.691040,3490.266357 1503.690552,3380.320312 1503.667114,3270.374268 
	C1503.666138,3265.715576 1503.860474,3260.989502 1503.182983,3256.410400 
	C1500.504517,3238.303955 1490.696289,3225.713379 1472.985718,3220.377441 
	C1465.411133,3218.095215 1457.409058,3216.842529 1449.510254,3216.130859 
	C1440.911011,3215.355469 1432.206177,3215.657227 1423.547241,3215.651611 
	C1375.570801,3215.619141 1327.594238,3215.674561 1279.617798,3215.610352 
	C1266.904907,3215.593262 1254.291870,3216.143066 1242.127563,3220.287842 
	C1223.856201,3226.513672 1213.668213,3239.189697 1211.947876,3258.495850 
	C1211.711792,3261.145752 1211.670776,3263.819824 1211.670410,3266.482666 
	C1211.659058,3379.093994 1211.646362,3491.705566 1211.735474,3604.316895 
	C1211.738403,3608.049805 1212.791138,3611.781738 1213.482666,3616.364014 
	C1249.103271,3616.364014 1283.687378,3616.390381 1318.271484,3616.335938 
	C1323.579102,3616.327637 1328.887085,3615.962158 1334.192749,3615.716309 
	C1334.840576,3615.686035 1335.567627,3615.506592 1336.089966,3615.150146 
	C1336.609863,3614.795410 1336.918213,3614.130615 1338.708862,3611.770508 
	C1339.024902,3588.425537 1338.778931,3563.209717 1338.854004,3534.004395 
M3305.192627,3374.000244 
	C3305.192627,3355.344482 3305.204102,3336.688965 3305.188965,3318.033203 
	C3305.173584,3299.378174 3305.642334,3280.704834 3304.973389,3262.072754 
	C3304.115234,3238.166992 3293.759033,3225.336182 3270.525146,3219.358887 
	C3261.602051,3217.062988 3252.152588,3215.843994 3242.936523,3215.808350 
	C3170.313965,3215.526611 3097.689941,3215.622314 3025.066406,3215.729980 
	C3021.390869,3215.735596 3017.716553,3216.924561 3013.149414,3217.717529 
	C3013.149414,3225.516357 3013.149414,3232.105469 3013.149414,3238.694824 
	C3013.149414,3288.665039 3013.149170,3338.635498 3013.149414,3388.605713 
	C3013.149414,3458.564209 3013.097168,3528.522705 3013.248291,3598.480957 
	C3013.260498,3604.158447 3011.198242,3610.497559 3016.655029,3615.781494 
	C3019.649658,3615.960938 3022.947021,3616.324219 3026.244629,3616.330078 
	C3053.561768,3616.377930 3080.878906,3616.360107 3108.196045,3616.360596 
	C3154.168701,3616.361328 3200.142090,3616.244385 3246.114014,3616.442139 
	C3257.598877,3616.491455 3268.811035,3615.287598 3279.385010,3610.936035 
	C3294.060791,3604.896240 3303.193359,3594.150879 3304.500732,3577.845947 
	C3305.032227,3571.219238 3305.158447,3564.546143 3305.163818,3557.893799 
	C3305.211914,3497.929443 3305.192383,3437.964844 3305.192627,3374.000244 
M1990.640991,3464.932373 
	C1987.135376,3464.236816 1984.270752,3462.678955 1984.084351,3458.696777 
	C1983.804443,3452.717529 1983.710449,3446.725342 1983.708374,3440.738525 
	C1983.684570,3372.807129 1983.715088,3304.875732 1983.658081,3236.944336 
	C1983.652588,3230.455566 1983.155151,3223.967285 1982.888184,3217.527588 
	C1979.866455,3216.714600 1978.022461,3215.789551 1976.176514,3215.785156 
	C1938.881592,3215.696777 1901.586426,3215.675293 1864.291748,3215.799316 
	C1861.894165,3215.807129 1859.500854,3217.101807 1857.296387,3217.742188 
	C1856.893433,3220.624512 1856.387573,3222.556396 1856.386963,3224.488525 
	C1856.342529,3351.693115 1856.326294,3478.897949 1856.403931,3606.102539 
	C1856.405762,3609.201172 1857.487183,3612.299316 1858.107666,3615.625488 
	C1862.329590,3615.914307 1865.603149,3616.340820 1868.875366,3616.331055 
	C1905.492310,3616.221436 1942.109009,3616.046875 1978.725708,3615.869385 
	C1979.375610,3615.866211 1980.105103,3615.749268 1980.651001,3615.433105 
	C1981.199097,3615.115234 1981.563477,3614.480713 1983.426514,3612.405518 
	C1983.592773,3594.919678 1983.774536,3575.795654 1983.952393,3557.095947 
	C1998.380005,3552.027832 2004.519653,3551.943848 2020.316650,3556.514893 
	C2022.958008,3575.699707 2018.933960,3595.744873 2022.717407,3615.366211 
	C2026.376221,3615.772461 2028.992310,3616.320312 2031.607300,3616.315186 
	C2068.895752,3616.243408 2106.184082,3616.099121 2143.472412,3615.947754 
	C2144.095947,3615.945312 2144.786621,3615.755615 2145.322021,3615.442383 
	C2145.878418,3615.116455 2146.284424,3614.534424 2146.753418,3614.061523 
	C2149.397705,3592.873291 2150.355469,3361.934570 2148.326416,3228.897949 
	C2148.268066,3225.079102 2147.933350,3221.264404 2147.743408,3217.737549 
	C2129.663330,3215.014648 2040.372070,3214.885010 2023.206177,3217.383545 
	C2019.536621,3223.427246 2021.229980,3230.235840 2021.217896,3236.710693 
	C2021.089722,3305.307861 2021.206299,3373.905518 2021.035767,3442.502441 
	C2021.018188,3449.559570 2022.998535,3457.103027 2017.850098,3464.776611 
	C2010.263306,3464.880859 2002.372314,3464.989258 1990.640991,3464.932373 
M2763.859619,3615.799805 
	C2766.470459,3615.301758 2769.140137,3615.008301 2771.682861,3614.273926 
	C2799.491699,3606.242676 2808.370361,3594.739990 2809.142822,3565.476074 
	C2809.388672,3556.156494 2809.189697,3546.825195 2809.189697,3537.499268 
	C2809.189941,3436.246094 2809.223145,3334.993164 2809.099365,3233.739990 
	C2809.092285,3228.047363 2810.909668,3221.822510 2806.675537,3216.900391 
	C2805.048096,3216.468506 2803.805908,3215.853760 2802.562500,3215.850830 
	C2765.260742,3215.762695 2727.958984,3215.695312 2690.657471,3215.789307 
	C2688.229980,3215.795410 2685.805664,3217.115479 2682.809814,3217.990967 
	C2682.809814,3225.887451 2682.809814,3233.197998 2682.809814,3240.508301 
	C2682.809814,3312.451416 2682.810791,3384.394287 2682.808838,3456.337402 
	C2682.808350,3473.656982 2682.945557,3490.979004 2682.672119,3508.294189 
	C2682.614258,3511.980713 2681.044678,3515.643555 2680.085205,3519.680908 
	C2668.057129,3520.242676 2657.005127,3521.431396 2645.025391,3518.746582 
	C2644.777344,3510.547119 2644.373535,3503.345703 2644.369873,3496.144287 
	C2644.325684,3410.212402 2644.382080,3324.280273 2644.266602,3238.348389 
	C2644.257080,3231.254395 2645.599609,3223.888916 2642.980713,3217.265381 
	C2619.972900,3214.575684 2533.446777,3215.063721 2517.977539,3218.054443 
	C2517.714600,3222.285400 2517.190430,3226.806152 2517.188477,3231.326904 
	C2517.144043,3341.906006 2517.128418,3452.485107 2517.232422,3563.064209 
	C2517.238037,3569.001221 2517.950439,3575.007080 2519.004639,3580.860107 
	C2521.575195,3595.135254 2530.344727,3604.587646 2543.297852,3610.411133 
	C2553.184814,3614.855469 2563.640381,3616.397461 2574.428223,3616.375488 
	C2636.376953,3616.250000 2698.325439,3616.189697 2763.859619,3615.799805 
M1554.540527,3608.311035 
	C1566.016968,3614.417480 1578.366211,3616.391357 1591.223022,3616.378662 
	C1650.535156,3616.320068 1709.847900,3616.466309 1769.158936,3616.215332 
	C1777.055542,3616.181885 1785.094116,3614.942627 1792.807861,3613.147705 
	C1814.506714,3608.097900 1825.466797,3592.387695 1825.306274,3571.350342 
	C1824.904541,3518.705566 1825.383667,3466.054443 1825.077026,3413.408447 
	C1824.943604,3390.509277 1814.569214,3377.430908 1792.290161,3372.005371 
	C1782.690918,3369.667725 1772.583008,3368.626221 1762.682617,3368.468750 
	C1734.033447,3368.012207 1705.372070,3368.355957 1676.716187,3368.244385 
	C1672.253418,3368.227051 1667.793457,3367.469971 1663.077637,3367.031250 
	C1659.968262,3357.678955 1661.011963,3348.952393 1661.356689,3340.472900 
	C1661.723389,3331.453369 1658.652222,3321.913330 1664.178101,3313.076172 
	C1674.939941,3313.076172 1685.448242,3313.076172 1695.373779,3313.076172 
	C1696.764038,3314.806152 1697.882080,3315.694336 1698.342773,3316.845703 
	C1705.719604,3335.281006 1706.800659,3336.228516 1725.705688,3336.318115 
	C1754.361450,3336.453613 1783.018433,3336.374023 1811.674805,3336.322754 
	C1815.519653,3336.315918 1819.363892,3335.939941 1822.519775,3335.771240 
	C1823.692383,3333.362305 1824.709473,3332.240479 1824.719360,3331.109863 
	C1824.928467,3307.127197 1825.473511,3283.135010 1825.000244,3259.163086 
	C1824.618164,3239.803467 1814.503174,3226.324707 1795.938354,3220.637939 
	C1786.515625,3217.751221 1776.366943,3215.977051 1766.530273,3215.905029 
	C1708.554443,3215.480225 1650.573730,3215.687988 1592.594727,3215.745117 
	C1588.606323,3215.749023 1584.583740,3216.013184 1580.635620,3216.571045 
	C1551.562134,3220.679199 1533.685547,3235.332520 1534.506226,3268.129883 
	C1535.706299,3316.082764 1534.813110,3364.087646 1534.819458,3412.070557 
	C1534.819946,3415.402100 1534.802979,3418.736572 1534.932373,3422.064453 
	C1535.665527,3440.915039 1545.615845,3453.041748 1562.797607,3459.609375 
	C1572.226685,3463.213379 1582.079346,3464.471436 1592.207886,3464.411133 
	C1620.196899,3464.244385 1648.187622,3464.319824 1676.177490,3464.381836 
	C1682.724487,3464.396240 1689.270752,3464.738037 1696.401489,3464.946533 
	C1697.344727,3469.068359 1698.736816,3472.212158 1698.660767,3475.320068 
	C1698.305542,3489.821533 1700.314941,3504.451416 1697.323242,3519.266846 
	C1685.653076,3522.322266 1674.665039,3521.683594 1664.687622,3520.060547 
	C1663.162720,3518.683350 1662.413208,3518.330078 1662.210327,3517.776367 
	C1654.644043,3497.122559 1653.053345,3495.781494 1632.563477,3495.684326 
	C1603.907593,3495.548096 1575.250366,3495.581055 1546.594727,3495.739258 
	C1542.860840,3495.760010 1539.133667,3496.951904 1534.855225,3497.696777 
	C1534.855225,3523.954346 1534.786133,3549.262939 1534.883057,3574.570801 
	C1534.935181,3588.168701 1540.469604,3599.022949 1554.540527,3608.311035 
M3307.940918,1561.553955 
	C3309.408203,1525.481445 3307.295898,1489.685059 3300.037598,1454.242554 
	C3284.312500,1377.459229 3250.232178,1309.966553 3197.744141,1251.784546 
	C3195.284424,1249.057861 3192.139893,1246.948608 3187.042236,1242.624878 
	C3188.476807,1250.163086 3189.117676,1254.692749 3190.212158,1259.109985 
	C3210.463135,1340.853638 3210.709473,1422.555786 3189.437500,1504.129761 
	C3167.614014,1587.819946 3126.078613,1660.413330 3065.393311,1721.960938 
	C3030.785645,1757.060181 2995.739746,1791.727661 2960.927734,1826.625732 
	C2956.272949,1831.291992 2951.832764,1836.172363 2946.848389,1841.422607 
	C2949.440674,1844.549805 2951.317383,1847.216064 2953.586670,1849.490479 
	C2988.404053,1884.383911 3023.252930,1919.245361 3058.173828,1954.034668 
	C3060.347900,1956.200439 3063.179443,1957.706177 3066.378174,1960.002197 
	C3111.091064,1914.806152 3156.559814,1871.638062 3198.797852,1825.511841 
	C3265.912842,1752.218872 3301.042236,1664.503906 3307.940918,1561.553955 
M2714.422363,3050.525635 
	C2785.583740,3050.659668 2853.126221,3035.368896 2916.591797,3002.899170 
	C2957.605957,2981.915527 3000.728027,2949.855469 3016.020508,2928.676758 
	C3008.025391,2930.481201 3001.065186,2931.952393 2994.154541,2933.627441 
	C2923.126953,2950.846191 2851.847656,2952.260010 2780.241699,2937.376221 
	C2685.002686,2917.580078 2603.125732,2873.093750 2534.263916,2804.527100 
	C2500.268555,2770.677734 2466.421631,2736.679688 2432.468506,2702.787842 
	C2427.845703,2698.173584 2422.995361,2693.787598 2418.477783,2689.511475 
	C2379.083008,2729.503174 2340.410645,2768.761475 2301.087891,2808.679932 
	C2301.648193,2809.411133 2303.012207,2811.675781 2304.827637,2813.489258 
	C2344.893066,2853.517822 2384.560303,2893.959717 2425.239990,2933.355469 
	C2466.427002,2973.242676 2514.580566,3002.607666 2568.182861,3022.903809 
	C2614.076660,3040.280762 2661.753906,3048.719727 2714.422363,3050.525635 
M2855.640869,3326.000000 
	C2855.775635,3421.190430 2855.909180,3516.380615 2856.067139,3611.571045 
	C2856.068359,3612.185547 2856.297119,3612.866211 2856.618896,3613.395020 
	C2856.954834,3613.947266 2857.532227,3614.353027 2857.999756,3614.826904 
	C2878.587158,3617.315674 2966.126953,3616.949707 2981.913330,3614.115723 
	C2982.220703,3609.215820 2982.790527,3604.045166 2982.834229,3598.870361 
	C2984.318604,3423.304199 2983.362305,3233.154053 2980.779297,3216.694336 
	C2970.732178,3214.608887 2960.156006,3215.888184 2949.707275,3215.668213 
	C2939.725830,3215.458008 2929.736572,3215.622803 2919.750732,3215.622803 
	C2909.099365,3215.622803 2898.440918,3215.384033 2887.798340,3215.690430 
	C2877.420166,3215.988770 2866.816650,3214.150391 2855.640869,3217.584229 
	C2855.640869,3252.927002 2855.640869,3287.463379 2855.640869,3326.000000 
M1496.426514,2493.168945 
	C1499.026245,2498.566895 1501.396851,2504.089844 1504.263428,2509.342041 
	C1521.165771,2540.310303 1543.954590,2565.966797 1573.665527,2585.195557 
	C1575.942017,2586.668945 1579.232910,2586.574951 1581.131714,2587.002197 
	C1582.623291,2565.829834 1582.544922,2545.691162 1585.707520,2526.074951 
	C1594.885376,2469.146240 1620.437744,2420.236572 1661.323853,2379.437988 
	C1679.718384,2361.083008 1698.119873,2342.734131 1716.390747,2324.256348 
	C1719.447632,2321.164795 1721.853271,2317.429443 1724.576782,2313.970215 
	C1686.083374,2275.272461 1648.527954,2237.486816 1610.870972,2199.802490 
	C1609.678101,2198.608887 1607.437378,2198.462402 1604.400024,2197.362305 
	C1584.456909,2217.654785 1564.861450,2238.568848 1544.230103,2258.405762 
	C1481.611694,2318.612549 1462.606323,2411.341309 1496.426514,2493.168945 
M1972.368286,1261.533447 
	C1927.464355,1229.999756 1877.903076,1216.455078 1823.225830,1223.452271 
	C1760.165161,1231.522217 1710.911621,1262.375000 1674.850708,1314.508789 
	C1673.196289,1316.900635 1672.736084,1320.118652 1671.458374,1323.680298 
	C1686.888916,1324.184448 1700.903931,1323.803345 1714.730591,1325.237427 
	C1779.338501,1331.938599 1834.861328,1358.073975 1880.788696,1404.237549 
	C1898.170410,1421.708740 1915.593872,1439.138794 1933.094727,1456.490479 
	C1936.787476,1460.151733 1940.901978,1463.387573 1945.082520,1467.047485 
	C1948.253906,1464.194580 1950.812378,1462.103149 1953.132690,1459.774170 
	C1988.854614,1423.920166 2024.546875,1388.036499 2060.229248,1352.142944 
	C2060.684570,1351.684937 2061.043701,1351.047363 2061.227783,1350.428223 
	C2061.395508,1349.864502 2061.263428,1349.211670 2061.263428,1346.763916 
	C2041.970703,1327.449341 2021.938843,1307.082642 2001.524780,1287.106567 
	C1992.977905,1278.743042 1983.620361,1271.208008 1972.368286,1261.533447 
M1457.620605,1033.924072 
	C1457.620605,1033.924072 1458.082764,1033.644043 1457.620605,1033.924072 
M1289.638184,1197.937500 
	C1289.638184,1197.937500 1290.106934,1197.654907 1289.638184,1197.937500 
z"/>
<path fill="#103E73" opacity="1.000000" stroke="none" 
	d="
M2771.251465,1976.748779 
	C2666.611084,1872.108276 2562.970459,1768.467773 2460.482178,1665.979614 
	C2460.031250,1663.372559 2459.750244,1662.697510 2459.854980,1662.088867 
	C2459.961914,1661.467407 2460.332031,1660.796631 2460.783203,1660.342529 
	C2494.601562,1626.306152 2528.431396,1592.281738 2562.288818,1558.284424 
	C2565.062256,1555.499756 2568.031982,1552.910278 2571.932617,1549.278320 
	C2576.642334,1553.472900 2581.153076,1557.110840 2585.232910,1561.181030 
	C2643.272705,1619.086060 2701.260254,1677.043457 2759.248291,1735.000000 
	C2899.269043,1874.945190 3039.212891,2014.967651 3179.340820,2154.804932 
	C3225.339111,2200.707764 3260.507324,2253.563721 3282.381592,2314.780029 
	C3371.583984,2564.414795 3221.347900,2825.088379 2973.556152,2880.708984 
	C2830.021484,2912.927734 2682.023438,2871.047607 2577.453369,2767.978516 
	C2540.901123,2731.950684 2504.813477,2695.451660 2468.549805,2659.131592 
	C2465.348145,2655.925293 2462.416260,2652.450195 2459.503662,2649.258301 
	C2469.830322,2635.036621 2558.269287,2546.466797 2573.311523,2535.282227 
	C2576.500977,2538.151367 2579.994141,2541.034424 2583.192383,2544.214355 
	C2600.680908,2561.603516 2618.203125,2578.960938 2635.516846,2596.523193 
	C2677.615479,2639.226074 2728.301270,2665.393555 2787.474121,2674.435059 
	C2803.187988,2676.836426 2819.355713,2676.235596 2835.309814,2677.109863 
	C2842.492920,2677.503418 2849.861084,2674.607910 2856.907471,2678.643066 
	C2858.313721,2679.448242 2860.837646,2678.891357 2862.643311,2678.320312 
	C2889.893555,2669.703125 2918.123047,2663.989258 2943.786133,2650.667480 
	C3024.748535,2608.640137 3076.169678,2543.604492 3090.569580,2453.222900 
	C3104.649170,2364.850098 3080.092529,2286.641113 3016.731934,2222.484375 
	C2935.707764,2140.442383 2853.786377,2059.286377 2771.251465,1976.748779 
z"/>
<path fill="#0F3D73" opacity="1.000000" stroke="none" 
	d="
M1531.280029,2191.274414 
	C1519.912720,2202.646729 1509.376953,2212.856201 1499.207275,2223.417969 
	C1447.715942,2276.893799 1422.561035,2340.756348 1423.116333,2415.042969 
	C1424.045532,2539.332275 1515.925171,2655.798828 1652.933350,2674.655518 
	C1739.172119,2686.524658 1815.156494,2661.238770 1877.995239,2600.041504 
	C1911.897339,2567.024902 1945.037109,2533.225098 1978.505127,2499.762939 
	C2126.988281,2351.304688 2275.462402,2202.836914 2423.967041,2054.400146 
	C2428.150146,2050.218750 2432.641357,2046.345337 2436.855713,2042.451538 
	C2449.387451,2052.144531 2531.539307,2133.515869 2550.336914,2154.784668 
	C2548.253906,2157.662109 2546.312500,2160.998047 2543.746582,2163.751953 
	C2538.296875,2169.601074 2532.534912,2175.159912 2526.879150,2180.815918 
	C2335.516846,2372.181152 2144.135254,2563.527100 1952.816040,2754.935303 
	C1933.943115,2773.816895 1914.623657,2792.153564 1893.011963,2807.912598 
	C1830.276245,2853.660156 1760.435547,2880.470703 1683.098877,2889.019287 
	C1476.859619,2911.816162 1273.061401,2779.046387 1221.882812,2564.878662 
	C1186.409546,2416.434326 1221.403320,2283.275635 1324.076294,2169.848145 
	C1362.946655,2126.906738 1405.652832,2087.436279 1446.654907,2046.427979 
	C1447.995728,2045.087036 1449.818848,2044.228394 1452.505981,2042.406860 
	C1472.554932,2059.747070 1490.434937,2079.330566 1509.229370,2097.927246 
	C1528.084717,2116.583740 1547.069458,2135.135498 1565.799194,2154.931396 
	C1560.904053,2162.576904 1554.719360,2167.634277 1549.246460,2173.269775 
	C1543.668823,2179.013672 1537.941895,2184.612061 1531.280029,2191.274414 
z"/>
<path fill="#103D73" opacity="1.000000" stroke="none" 
	d="
M2145.422363,2106.578125 
	C2169.892090,2131.097168 2193.361572,2154.616699 2216.108154,2177.411377 
	C2215.912598,2179.636475 2215.950684,2180.328613 2215.768555,2180.956299 
	C2215.589600,2181.572021 2215.305908,2182.241455 2214.864502,2182.684326 
	C2179.122803,2218.556641 2143.368408,2254.416504 2107.556396,2290.218750 
	C2106.714844,2291.060059 2105.210938,2291.238281 2102.700195,2292.262695 
	C2097.948486,2287.781006 2092.603027,2282.989502 2087.533447,2277.921875 
	C1963.100586,2153.534668 1838.696777,2029.118286 1714.288208,1904.706665 
	C1640.774292,1831.190552 1567.207031,1757.727539 1493.765503,1684.139160 
	C1434.337646,1624.592651 1394.118408,1553.908691 1377.706421,1471.454224 
	C1348.704346,1325.747925 1383.730225,1196.357300 1484.578613,1086.740723 
	C1552.868530,1012.513184 1638.316772,968.528137 1738.473389,955.510803 
	C1871.018188,938.284058 1988.160156,974.194946 2087.170166,1064.059937 
	C2131.042480,1103.880005 2171.576416,1147.378662 2213.572754,1189.260742 
	C2214.916260,1190.600708 2215.675293,1192.526855 2216.661865,1194.107788 
	C2206.135986,1207.706299 2117.279541,1296.462158 2102.926025,1307.554077 
	C2099.750977,1304.624634 2096.326904,1301.666992 2093.129395,1298.482056 
	C2073.769775,1279.199097 2054.740479,1259.575684 2035.084106,1240.601562 
	C1980.510010,1187.921997 1914.768921,1162.221558 1839.320435,1165.122437 
	C1701.150269,1170.435059 1606.914795,1272.500244 1587.218872,1380.051880 
	C1570.447388,1471.633545 1593.944580,1551.814453 1658.368896,1618.996704 
	C1698.951416,1661.316650 1741.202026,1702.035889 1782.659058,1743.518433 
	C1903.259033,1864.192871 2023.836182,1984.889893 2145.422363,2106.578125 
z"/>
<path fill="#0F3D73" opacity="1.000000" stroke="none" 
	d="
M2860.186279,1755.813232 
	C2838.027588,1733.555542 2816.859375,1712.307251 2795.743164,1691.007690 
	C2794.850098,1690.106567 2794.436279,1688.729858 2793.800049,1687.574097 
	C2793.937012,1682.272339 2798.393555,1679.881714 2801.469238,1676.767578 
	C2819.735840,1658.273438 2838.319336,1640.092163 2856.570557,1621.583130 
	C2911.409912,1565.969849 2936.994873,1498.796387 2935.568848,1420.980103 
	C2935.460449,1415.068115 2936.202881,1409.144775 2936.267578,1403.223755 
	C2936.303467,1399.935791 2936.332031,1396.461914 2935.375000,1393.378906 
	C2929.063232,1373.044678 2923.954102,1352.175659 2915.738037,1332.621826 
	C2878.062500,1242.952881 2810.969971,1187.223755 2715.583496,1169.664795 
	C2628.233398,1153.585083 2550.720215,1177.912231 2484.811279,1237.852051 
	C2477.913574,1244.125000 2471.494629,1250.926636 2464.896973,1257.526489 
	C2289.115479,1433.372070 2113.342041,1609.225830 1937.551270,1785.062500 
	C1932.432739,1790.182251 1927.144043,1795.132080 1922.048340,1800.051514 
	C1908.684570,1790.190430 1820.276123,1702.063843 1807.913086,1686.289917 
	C1811.767822,1682.130615 1815.603149,1677.709839 1819.730103,1673.580688 
	C1912.561768,1580.700073 2005.450439,1487.876465 2098.276611,1394.990356 
	C2203.824463,1289.374268 2309.372559,1183.757690 2414.822021,1078.043091 
	C2468.697754,1024.031372 2532.093506,986.247253 2605.722168,966.190857 
	C2753.785156,925.858521 2913.453369,965.760376 3023.985352,1077.274292 
	C3087.373047,1141.224976 3128.239502,1217.365845 3142.546143,1305.978027 
	C3165.447754,1447.823608 3128.028076,1572.805664 3029.453125,1678.006958 
	C2992.098145,1717.872681 2952.394531,1755.538452 2913.713379,1794.158691 
	C2911.443848,1796.424561 2908.743408,1798.259155 2905.485352,1800.911865 
	C2890.404785,1785.899414 2875.795654,1771.356201 2860.186279,1755.813232 
z"/>
<path fill="#113F74" opacity="1.000000" stroke="none" 
	d="
M1503.608521,2932.274902 
	C1509.644165,2929.367676 1515.335571,2932.216064 1520.963013,2933.622070 
	C1568.531006,2945.507080 1616.874390,2950.358643 1665.704102,2947.242188 
	C1783.086548,2939.750244 1885.307373,2896.286377 1971.451782,2815.819336 
	C1979.730469,2808.086182 1987.695190,2800.012695 1995.708618,2792.000000 
	C2188.993408,2598.737549 2382.262695,2405.459473 2575.552246,2212.201660 
	C2580.670898,2207.083740 2585.987305,2202.163330 2591.068115,2197.288330 
	C2604.396240,2206.918213 2697.436035,2299.464600 2709.571045,2315.157227 
	C2705.155518,2319.798340 2700.713135,2324.663330 2696.064697,2329.322998 
	C2637.682129,2387.846680 2579.303223,2446.374023 2520.858398,2504.835449 
	C2381.815918,2643.917236 2242.622559,2782.848877 2103.726807,2922.076904 
	C2041.193726,2984.759277 1967.005005,3026.396240 1880.011108,3042.052979 
	C1737.800659,3067.647461 1611.998779,3032.187012 1504.142578,2933.409180 
	C1503.823608,2932.139893 1503.608521,2932.274902 1503.608521,2932.274902 
z"/>
<path fill="#113E74" opacity="1.000000" stroke="none" 
	d="
M1326.555542,1242.962402 
	C1330.918945,1248.703247 1327.448242,1254.425293 1326.422119,1260.099487 
	C1322.752563,1280.389526 1317.670288,1300.515747 1315.421631,1320.956665 
	C1298.261353,1476.943726 1343.356445,1612.469971 1453.922852,1723.942505 
	C1650.570435,1922.201538 1848.614380,2119.075195 2046.060059,2316.542480 
	C2051.627197,2322.110352 2057.035889,2327.836670 2062.390137,2333.356934 
	C2050.442627,2348.540527 1957.217285,2441.410156 1943.788940,2451.528076 
	C1938.687988,2446.660645 1933.344238,2441.764160 1928.222534,2436.645264 
	C1809.432373,2317.922363 1690.674927,2199.166260 1571.892700,2080.435059 
	C1493.647583,2002.223511 1415.417236,1923.996948 1337.096558,1845.860962 
	C1286.137085,1795.021362 1249.412109,1735.542847 1228.158936,1666.708862 
	C1183.368042,1521.642212 1218.420044,1366.166260 1316.183350,1255.371948 
	C1319.270996,1251.872681 1322.393433,1248.404175 1326.197510,1243.963867 
	C1326.895264,1243.006348 1326.555542,1242.962402 1326.555542,1242.962402 
z"/>
<path fill="#113F74" opacity="1.000000" stroke="none" 
	d="
M2479.241943,1323.241699 
	C2492.497314,1309.989502 2504.829590,1297.813110 2516.993896,1285.471436 
	C2557.285400,1244.593506 2606.515625,1222.221191 2663.439941,1221.681763 
	C2740.072754,1220.955444 2801.094971,1253.142090 2844.390625,1317.214966 
	C2845.106445,1318.274048 2845.552002,1319.569336 2845.870117,1320.818848 
	C2846.008057,1321.360474 2845.501465,1322.066406 2844.868652,1323.936157 
	C2841.506592,1323.936157 2837.718262,1323.973511 2833.931152,1323.930664 
	C2756.700439,1323.057495 2690.690186,1349.789307 2636.052490,1404.423950 
	C2539.905029,1500.565918 2443.785645,1596.735718 2347.649902,1692.889526 
	C2264.238281,1776.316528 2180.799805,1859.716431 2097.456055,1943.210815 
	C2092.288086,1948.387939 2087.842773,1954.286377 2082.759521,1960.200684 
	C2078.796387,1957.819580 2076.302734,1956.910400 2074.597412,1955.210327 
	C2038.253784,1918.976807 2001.994507,1882.659058 1965.751587,1846.324951 
	C1964.836914,1845.408203 1964.293091,1844.121704 1962.975708,1842.073608 
	C1965.133423,1835.343506 1971.497070,1831.270142 1976.449951,1826.306763 
	C2072.020996,1730.531128 2167.679688,1634.842773 2263.336426,1539.152588 
	C2334.959717,1467.503906 2406.605713,1395.877808 2479.241943,1323.241699 
z"/>
<path fill="#0F3D73" opacity="1.000000" stroke="none" 
	d="
M2525.318848,1810.681396 
	C2673.861328,1959.226440 2821.456299,2106.718994 2968.841797,2254.420654 
	C2980.094727,2265.697754 2991.026123,2277.640625 3000.140381,2290.651611 
	C3065.970459,2384.624756 3042.866455,2515.586670 2949.200684,2581.613770 
	C2945.622803,2584.135986 2942.559082,2588.458740 2935.618408,2586.520752 
	C2935.618408,2582.409668 2935.626465,2577.969238 2935.617188,2573.528809 
	C2935.460205,2497.922607 2909.375000,2432.806396 2855.993896,2379.129150 
	C2792.063965,2314.844482 2727.692383,2250.999512 2663.600830,2186.875244 
	C2545.315674,2068.529541 2427.092529,1950.121948 2308.867676,1831.716187 
	C2306.061768,1828.906006 2303.541260,1825.810913 2300.308594,1822.202026 
	C2311.735596,1807.220215 2325.878906,1795.179688 2338.725342,1781.958984 
	C2351.267334,1769.051270 2364.114990,1756.439819 2376.874268,1743.744263 
	C2390.069336,1730.615112 2403.319092,1717.541260 2417.571777,1703.426270 
	C2436.677002,1721.513062 2454.134521,1739.645996 2471.979004,1757.368286 
	C2489.480957,1774.750244 2506.876709,1792.239380 2525.318848,1810.681396 
z"/>
<path fill="#113E74" opacity="1.000000" stroke="none" 
	d="
M2306.859375,3539.999512 
	C2306.853516,3565.862305 2306.847656,3589.726318 2306.842041,3613.165039 
	C2291.929443,3617.149170 2221.312988,3618.231934 2181.434570,3615.357910 
	C2180.872803,3611.913086 2179.739990,3608.195312 2179.736816,3604.476807 
	C2179.640625,3490.611572 2179.929443,3376.745361 2179.426514,3262.882324 
	C2179.323486,3239.584961 2194.586914,3223.264648 2213.005859,3219.380859 
	C2220.134766,3217.877441 2227.397949,3216.058105 2234.605957,3216.030762 
	C2295.193115,3215.801758 2355.782715,3215.808594 2416.368896,3216.175049 
	C2424.212646,3216.222412 2432.284424,3217.932617 2439.830566,3220.243408 
	C2459.162109,3226.163330 2469.157959,3239.944824 2470.769531,3259.926025 
	C2471.036621,3263.235107 2470.857178,3266.581543 2470.857422,3269.910645 
	C2470.860107,3379.114746 2470.859375,3488.318604 2470.859375,3597.522705 
	C2470.859375,3602.761719 2470.859375,3608.000977 2470.859375,3613.974609 
	C2467.506104,3614.928467 2465.123779,3616.189941 2462.737305,3616.197754 
	C2424.130371,3616.321289 2385.523193,3616.285156 2345.601807,3616.285156 
	C2344.919189,3611.584473 2343.755859,3607.238281 2343.739502,3602.888184 
	C2343.593994,3564.267822 2343.684814,3525.646484 2343.616455,3487.025635 
	C2343.604980,3480.505127 2343.162354,3473.985352 2342.904297,3467.066162 
	C2331.663574,3462.541504 2321.177002,3464.666016 2309.761230,3464.972168 
	C2308.783691,3468.756348 2307.069824,3472.405029 2307.020752,3476.075684 
	C2306.745361,3496.714355 2306.870850,3517.358398 2306.859375,3539.999512 
M2343.715820,3326.934082 
	C2343.194092,3322.500977 2342.672119,3318.068115 2342.083008,3313.064209 
	C2335.775879,3312.777100 2330.521973,3312.162354 2325.307129,3312.401611 
	C2319.541260,3312.665771 2313.308838,3310.539307 2308.181885,3314.819580 
	C2305.298096,3340.135254 2305.959961,3356.170654 2310.456543,3367.911377 
	C2320.798340,3368.294678 2331.283447,3369.338135 2342.860352,3366.851318 
	C2344.365234,3354.397949 2343.457764,3342.497070 2343.715820,3326.934082 
z"/>
<path fill="#103E73" opacity="1.000000" stroke="none" 
	d="
M1338.853760,3536.002441 
	C1338.778931,3563.209717 1339.024902,3588.425537 1338.708862,3611.770508 
	C1336.918213,3614.130615 1336.609863,3614.795410 1336.089966,3615.150146 
	C1335.567627,3615.506592 1334.840576,3615.686035 1334.192749,3615.716309 
	C1328.887085,3615.962158 1323.579102,3616.327637 1318.271484,3616.335938 
	C1283.687378,3616.390381 1249.103271,3616.364014 1213.482666,3616.364014 
	C1212.791138,3611.781738 1211.738403,3608.049805 1211.735474,3604.316895 
	C1211.646362,3491.705566 1211.659058,3379.093994 1211.670410,3266.482666 
	C1211.670776,3263.819824 1211.711792,3261.145752 1211.947876,3258.495850 
	C1213.668213,3239.189697 1223.856201,3226.513672 1242.127563,3220.287842 
	C1254.291870,3216.143066 1266.904907,3215.593262 1279.617798,3215.610352 
	C1327.594238,3215.674561 1375.570801,3215.619141 1423.547241,3215.651611 
	C1432.206177,3215.657227 1440.911011,3215.355469 1449.510254,3216.130859 
	C1457.409058,3216.842529 1465.411133,3218.095215 1472.985718,3220.377441 
	C1490.696289,3225.713379 1500.504517,3238.303955 1503.182983,3256.410400 
	C1503.860474,3260.989502 1503.666138,3265.715576 1503.667114,3270.374268 
	C1503.690552,3380.320312 1503.691040,3490.266357 1503.667969,3600.212402 
	C1503.667114,3604.754883 1503.398804,3609.297607 1503.296997,3612.518066 
	C1501.714233,3614.299316 1501.347900,3614.916992 1500.807373,3615.261719 
	C1500.281006,3615.597168 1499.576904,3615.806641 1498.949463,3615.810303 
	C1464.314575,3616.012451 1429.679443,3616.189941 1395.044434,3616.360107 
	C1389.762939,3616.386230 1384.481201,3616.363770 1378.096680,3616.363770 
	C1377.429077,3611.073730 1376.404297,3606.666260 1376.389771,3602.255859 
	C1376.261597,3563.608643 1376.354126,3524.960693 1376.272095,3486.312988 
	C1376.258423,3479.834473 1375.719482,3473.356934 1375.396851,3466.301025 
	C1363.754639,3463.152344 1353.285034,3464.390381 1341.771240,3465.034912 
	C1340.804199,3468.723877 1339.072144,3472.366699 1339.017456,3476.034668 
	C1338.729736,3495.354492 1338.865356,3514.680420 1338.853760,3536.002441 
M1376.381592,3341.932373 
	C1375.479980,3332.364014 1378.569580,3322.330322 1373.293457,3312.295898 
	C1367.816650,3312.295898 1362.569702,3312.034180 1357.360596,3312.365967 
	C1351.639282,3312.730713 1345.446899,3310.577393 1340.404907,3314.918701 
	C1337.232788,3338.136475 1337.876831,3355.371094 1342.557983,3367.801270 
	C1353.229736,3367.813965 1364.254028,3370.436279 1375.803833,3365.763916 
	C1376.006348,3358.738525 1376.193970,3352.231689 1376.381592,3341.932373 
z"/>
<path fill="#103E73" opacity="1.000000" stroke="none" 
	d="
M3305.192627,3376.000488 
	C3305.192383,3437.964844 3305.211914,3497.929443 3305.163818,3557.893799 
	C3305.158447,3564.546143 3305.032227,3571.219238 3304.500732,3577.845947 
	C3303.193359,3594.150879 3294.060791,3604.896240 3279.385010,3610.936035 
	C3268.811035,3615.287598 3257.598877,3616.491455 3246.114014,3616.442139 
	C3200.142090,3616.244385 3154.168701,3616.361328 3108.196045,3616.360596 
	C3080.878906,3616.360107 3053.561768,3616.377930 3026.244629,3616.330078 
	C3022.947021,3616.324219 3019.649658,3615.960938 3016.655029,3615.781494 
	C3011.198242,3610.497559 3013.260498,3604.158447 3013.248291,3598.480957 
	C3013.097168,3528.522705 3013.149414,3458.564209 3013.149414,3388.605713 
	C3013.149170,3338.635498 3013.149414,3288.665039 3013.149414,3238.694824 
	C3013.149414,3232.105469 3013.149414,3225.516357 3013.149414,3217.717529 
	C3017.716553,3216.924561 3021.390869,3215.735596 3025.066406,3215.729980 
	C3097.689941,3215.622314 3170.313965,3215.526611 3242.936523,3215.808350 
	C3252.152588,3215.843994 3261.602051,3217.062988 3270.525146,3219.358887 
	C3293.759033,3225.336182 3304.115234,3238.166992 3304.973389,3262.072754 
	C3305.642334,3280.704834 3305.173584,3299.378174 3305.188965,3318.033203 
	C3305.204102,3336.688965 3305.192627,3355.344482 3305.192627,3376.000488 
M3140.191162,3330.887207 
	C3140.191162,3387.348145 3140.144043,3443.808838 3140.255859,3500.269531 
	C3140.268555,3506.685059 3138.803467,3513.430420 3142.717041,3520.252441 
	C3154.472656,3521.554932 3166.067627,3523.172363 3178.660156,3518.443848 
	C3179.309082,3452.545898 3178.951416,3386.854736 3178.808350,3321.166504 
	C3178.802979,3318.694824 3177.465576,3316.226318 3176.619629,3313.310791 
	C3164.529541,3312.132812 3152.962402,3310.618896 3141.039307,3314.638916 
	C3140.722168,3319.321045 3140.457764,3323.221680 3140.191162,3330.887207 
z"/>
<path fill="#113E74" opacity="1.000000" stroke="none" 
	d="
M1992.561035,3465.015137 
	C2002.372314,3464.989258 2010.263306,3464.880859 2017.850098,3464.776611 
	C2022.998535,3457.103027 2021.018188,3449.559570 2021.035767,3442.502441 
	C2021.206299,3373.905518 2021.089722,3305.307861 2021.217896,3236.710693 
	C2021.229980,3230.235840 2019.536621,3223.427246 2023.206177,3217.383545 
	C2040.372070,3214.885010 2129.663330,3215.014648 2147.743408,3217.737549 
	C2147.933350,3221.264404 2148.268066,3225.079102 2148.326416,3228.897949 
	C2150.355469,3361.934570 2149.397705,3592.873291 2146.754883,3614.062988 
	C2146.284424,3614.534424 2145.878418,3615.116455 2145.322021,3615.442383 
	C2144.786621,3615.755615 2144.095947,3615.945312 2143.472412,3615.947754 
	C2106.184082,3616.099121 2068.895752,3616.243408 2031.607300,3616.315186 
	C2028.992310,3616.320312 2026.376221,3615.772461 2022.717407,3615.366211 
	C2018.933960,3595.744873 2022.958008,3575.699707 2020.316650,3556.514893 
	C2004.519653,3551.943848 1998.380005,3552.027832 1983.952393,3557.095947 
	C1983.774536,3575.795654 1983.592773,3594.919678 1983.426514,3612.405518 
	C1981.563477,3614.480713 1981.199097,3615.115234 1980.651001,3615.433105 
	C1980.105103,3615.749268 1979.375610,3615.866211 1978.725708,3615.869385 
	C1942.109009,3616.046875 1905.492310,3616.221436 1868.875366,3616.331055 
	C1865.603149,3616.340820 1862.329590,3615.914307 1858.107666,3615.625488 
	C1857.487183,3612.299316 1856.405762,3609.201172 1856.403931,3606.102539 
	C1856.326294,3478.897949 1856.342529,3351.693115 1856.386963,3224.488525 
	C1856.387573,3222.556396 1856.893433,3220.624512 1857.296387,3217.742188 
	C1859.500854,3217.101807 1861.894165,3215.807129 1864.291748,3215.799316 
	C1901.586426,3215.675293 1938.881592,3215.696777 1976.176514,3215.785156 
	C1978.022461,3215.789551 1979.866455,3216.714600 1982.888184,3217.527588 
	C1983.155151,3223.967285 1983.652588,3230.455566 1983.658081,3236.944336 
	C1983.715088,3304.875732 1983.684570,3372.807129 1983.708374,3440.738525 
	C1983.710449,3446.725342 1983.804443,3452.717529 1984.084351,3458.696777 
	C1984.270752,3462.678955 1987.135376,3464.236816 1992.561035,3465.015137 
z"/>
<path fill="#103E73" opacity="1.000000" stroke="none" 
	d="
M2762.066895,3615.953613 
	C2698.325439,3616.189697 2636.376953,3616.250000 2574.428223,3616.375488 
	C2563.640381,3616.397461 2553.184814,3614.855469 2543.297852,3610.411133 
	C2530.344727,3604.587646 2521.575195,3595.135254 2519.004639,3580.860107 
	C2517.950439,3575.007080 2517.238037,3569.001221 2517.232422,3563.064209 
	C2517.128418,3452.485107 2517.144043,3341.906006 2517.188477,3231.326904 
	C2517.190430,3226.806152 2517.714600,3222.285400 2517.977539,3218.054443 
	C2533.446777,3215.063721 2619.972900,3214.575684 2642.980713,3217.265381 
	C2645.599609,3223.888916 2644.257080,3231.254395 2644.266602,3238.348389 
	C2644.382080,3324.280273 2644.325684,3410.212402 2644.369873,3496.144287 
	C2644.373535,3503.345703 2644.777344,3510.547119 2645.025391,3518.746582 
	C2657.005127,3521.431396 2668.057129,3520.242676 2680.085205,3519.680908 
	C2681.044678,3515.643555 2682.614258,3511.980713 2682.672119,3508.294189 
	C2682.945557,3490.979004 2682.808350,3473.656982 2682.808838,3456.337402 
	C2682.810791,3384.394287 2682.809814,3312.451416 2682.809814,3240.508301 
	C2682.809814,3233.197998 2682.809814,3225.887451 2682.809814,3217.990967 
	C2685.805664,3217.115479 2688.229980,3215.795410 2690.657471,3215.789307 
	C2727.958984,3215.695312 2765.260742,3215.762695 2802.562500,3215.850830 
	C2803.805908,3215.853760 2805.048096,3216.468506 2806.675537,3216.900391 
	C2810.909668,3221.822510 2809.092285,3228.047363 2809.099365,3233.739990 
	C2809.223145,3334.993164 2809.189941,3436.246094 2809.189697,3537.499268 
	C2809.189697,3546.825195 2809.388672,3556.156494 2809.142822,3565.476074 
	C2808.370361,3594.739990 2799.491699,3606.242676 2771.682861,3614.273926 
	C2769.140137,3615.008301 2766.470459,3615.301758 2762.066895,3615.953613 
z"/>
<path fill="#103D73" opacity="1.000000" stroke="none" 
	d="
M1553.184814,3607.523438 
	C1540.469604,3599.022949 1534.935181,3588.168701 1534.883057,3574.570801 
	C1534.786133,3549.262939 1534.855225,3523.954346 1534.855225,3497.696777 
	C1539.133667,3496.951904 1542.860840,3495.760010 1546.594727,3495.739258 
	C1575.250366,3495.581055 1603.907593,3495.548096 1632.563477,3495.684326 
	C1653.053345,3495.781494 1654.644043,3497.122559 1662.210327,3517.776367 
	C1662.413208,3518.330078 1663.162720,3518.683350 1664.687622,3520.060547 
	C1674.665039,3521.683594 1685.653076,3522.322266 1697.323242,3519.266846 
	C1700.314941,3504.451416 1698.305542,3489.821533 1698.660767,3475.320068 
	C1698.736816,3472.212158 1697.344727,3469.068359 1696.401489,3464.946533 
	C1689.270752,3464.738037 1682.724487,3464.396240 1676.177490,3464.381836 
	C1648.187622,3464.319824 1620.196899,3464.244385 1592.207886,3464.411133 
	C1582.079346,3464.471436 1572.226685,3463.213379 1562.797607,3459.609375 
	C1545.615845,3453.041748 1535.665527,3440.915039 1534.932373,3422.064453 
	C1534.802979,3418.736572 1534.819946,3415.402100 1534.819458,3412.070557 
	C1534.813110,3364.087646 1535.706299,3316.082764 1534.506226,3268.129883 
	C1533.685547,3235.332520 1551.562134,3220.679199 1580.635620,3216.571045 
	C1584.583740,3216.013184 1588.606323,3215.749023 1592.594727,3215.745117 
	C1650.573730,3215.687988 1708.554443,3215.480225 1766.530273,3215.905029 
	C1776.366943,3215.977051 1786.515625,3217.751221 1795.938354,3220.637939 
	C1814.503174,3226.324707 1824.618164,3239.803467 1825.000244,3259.163086 
	C1825.473511,3283.135010 1824.928467,3307.127197 1824.719360,3331.109863 
	C1824.709473,3332.240479 1823.692383,3333.362305 1822.519775,3335.771240 
	C1819.363892,3335.939941 1815.519653,3336.315918 1811.674805,3336.322754 
	C1783.018433,3336.374023 1754.361450,3336.453613 1725.705688,3336.318115 
	C1706.800659,3336.228516 1705.719604,3335.281006 1698.342773,3316.845703 
	C1697.882080,3315.694336 1696.764038,3314.806152 1695.373779,3313.076172 
	C1685.448242,3313.076172 1674.939941,3313.076172 1664.178101,3313.076172 
	C1658.652222,3321.913330 1661.723389,3331.453369 1661.356689,3340.472900 
	C1661.011963,3348.952393 1659.968262,3357.678955 1663.077637,3367.031250 
	C1667.793457,3367.469971 1672.253418,3368.227051 1676.716187,3368.244385 
	C1705.372070,3368.355957 1734.033447,3368.012207 1762.682617,3368.468750 
	C1772.583008,3368.626221 1782.690918,3369.667725 1792.290161,3372.005371 
	C1814.569214,3377.430908 1824.943604,3390.509277 1825.077026,3413.408447 
	C1825.383667,3466.054443 1824.904541,3518.705566 1825.306274,3571.350342 
	C1825.466797,3592.387695 1814.506714,3608.097900 1792.807861,3613.147705 
	C1785.094116,3614.942627 1777.055542,3616.181885 1769.158936,3616.215332 
	C1709.847900,3616.466309 1650.535156,3616.320068 1591.223022,3616.378662 
	C1578.366211,3616.391357 1566.016968,3614.417480 1553.184814,3607.523438 
z"/>
<path fill="#113E74" opacity="1.000000" stroke="none" 
	d="
M3307.869141,1563.478760 
	C3301.042236,1664.503906 3265.912842,1752.218872 3198.797852,1825.511841 
	C3156.559814,1871.638062 3111.091064,1914.806152 3066.378174,1960.002197 
	C3063.179443,1957.706177 3060.347900,1956.200439 3058.173828,1954.034668 
	C3023.252930,1919.245361 2988.404053,1884.383911 2953.586670,1849.490479 
	C2951.317383,1847.216064 2949.440674,1844.549805 2946.848389,1841.422607 
	C2951.832764,1836.172363 2956.272949,1831.291992 2960.927734,1826.625732 
	C2995.739746,1791.727661 3030.785645,1757.060181 3065.393311,1721.960938 
	C3126.078613,1660.413330 3167.614014,1587.819946 3189.437500,1504.129761 
	C3210.709473,1422.555786 3210.463135,1340.853638 3190.212158,1259.109985 
	C3189.117676,1254.692749 3188.476807,1250.163086 3187.042236,1242.624878 
	C3192.139893,1246.948608 3195.284424,1249.057861 3197.744141,1251.784546 
	C3250.232178,1309.966553 3284.312500,1377.459229 3300.037598,1454.242554 
	C3307.295898,1489.685059 3309.408203,1525.481445 3307.869141,1563.478760 
z"/>
<path fill="#113E74" opacity="1.000000" stroke="none" 
	d="
M2712.559082,3050.507324 
	C2661.753906,3048.719727 2614.076660,3040.280762 2568.182861,3022.903809 
	C2514.580566,3002.607666 2466.427002,2973.242676 2425.239990,2933.355469 
	C2384.560303,2893.959717 2344.893066,2853.517822 2304.827637,2813.489258 
	C2303.012207,2811.675781 2301.648193,2809.411133 2301.087891,2808.679932 
	C2340.410645,2768.761475 2379.083008,2729.503174 2418.477783,2689.511475 
	C2422.995361,2693.787598 2427.845703,2698.173584 2432.468506,2702.787842 
	C2466.421631,2736.679688 2500.268555,2770.677734 2534.263916,2804.527100 
	C2603.125732,2873.093750 2685.002686,2917.580078 2780.241699,2937.376221 
	C2851.847656,2952.260010 2923.126953,2950.846191 2994.154541,2933.627441 
	C3001.065186,2931.952393 3008.025391,2930.481201 3016.020508,2928.676758 
	C3000.728027,2949.855469 2957.605957,2981.915527 2916.591797,3002.899170 
	C2853.126221,3035.368896 2785.583740,3050.659668 2712.559082,3050.507324 
z"/>
<path fill="#123F74" opacity="1.000000" stroke="none" 
	d="
M2855.640869,3324.000000 
	C2855.640869,3287.463379 2855.640869,3252.927002 2855.640869,3217.584229 
	C2866.816650,3214.150391 2877.420166,3215.988770 2887.798340,3215.690430 
	C2898.440918,3215.384033 2909.099365,3215.622803 2919.750732,3215.622803 
	C2929.736572,3215.622803 2939.725830,3215.458008 2949.707275,3215.668213 
	C2960.156006,3215.888184 2970.732178,3214.608887 2980.779297,3216.694336 
	C2983.362305,3233.154053 2984.318604,3423.304199 2982.834229,3598.870361 
	C2982.790527,3604.045166 2982.220703,3609.215820 2981.913330,3614.115723 
	C2966.126953,3616.949707 2878.587158,3617.315674 2858.001953,3614.824707 
	C2857.532227,3614.353027 2856.954834,3613.947266 2856.618896,3613.395020 
	C2856.297119,3612.866211 2856.068359,3612.185547 2856.067139,3611.571045 
	C2855.909180,3516.380615 2855.775635,3421.190430 2855.640869,3324.000000 
z"/>
<path fill="#113F74" opacity="1.000000" stroke="none" 
	d="
M1495.924316,2491.714844 
	C1462.606323,2411.341309 1481.611694,2318.612549 1544.230103,2258.405762 
	C1564.861450,2238.568848 1584.456909,2217.654785 1604.400024,2197.362305 
	C1607.437378,2198.462402 1609.678101,2198.608887 1610.870972,2199.802490 
	C1648.527954,2237.486816 1686.083374,2275.272461 1724.576782,2313.970215 
	C1721.853271,2317.429443 1719.447632,2321.164795 1716.390747,2324.256348 
	C1698.119873,2342.734131 1679.718384,2361.083008 1661.323853,2379.437988 
	C1620.437744,2420.236572 1594.885376,2469.146240 1585.707520,2526.074951 
	C1582.544922,2545.691162 1582.623291,2565.829834 1581.131714,2587.002197 
	C1579.232910,2586.574951 1575.942017,2586.668945 1573.665527,2585.195557 
	C1543.954590,2565.966797 1521.165771,2540.310303 1504.263428,2509.342041 
	C1501.396851,2504.089844 1499.026245,2498.566895 1495.924316,2491.714844 
z"/>
<path fill="#113F74" opacity="1.000000" stroke="none" 
	d="
M1973.499756,1262.414917 
	C1983.620361,1271.208008 1992.977905,1278.743042 2001.524780,1287.106567 
	C2021.938843,1307.082642 2041.970703,1327.449341 2061.263428,1346.763916 
	C2061.263428,1349.211670 2061.395508,1349.864502 2061.227783,1350.428223 
	C2061.043701,1351.047363 2060.684570,1351.684937 2060.229248,1352.142944 
	C2024.546875,1388.036499 1988.854614,1423.920166 1953.132690,1459.774170 
	C1950.812378,1462.103149 1948.253906,1464.194580 1945.082520,1467.047485 
	C1940.901978,1463.387573 1936.787476,1460.151733 1933.094727,1456.490479 
	C1915.593872,1439.138794 1898.170410,1421.708740 1880.788696,1404.237549 
	C1834.861328,1358.073975 1779.338501,1331.938599 1714.730591,1325.237427 
	C1700.903931,1323.803345 1686.888916,1324.184448 1671.458374,1323.680298 
	C1672.736084,1320.118652 1673.196289,1316.900635 1674.850708,1314.508789 
	C1710.911621,1262.375000 1760.165161,1231.522217 1823.225830,1223.452271 
	C1877.903076,1216.455078 1927.464355,1229.999756 1973.499756,1262.414917 
z"/>
<path fill="#113F74" opacity="1.000000" stroke="none" 
	d="
M1503.927490,2932.066895 
	C1503.236938,2931.298096 1502.442627,2930.602783 1501.648438,2929.907471 
	C1502.642944,2930.188965 1503.637573,2930.470459 1504.120361,2931.513428 
	C1503.608521,2932.274902 1503.823608,2932.139893 1503.927490,2932.066895 
z"/>
<path fill="#113E74" opacity="1.000000" stroke="none" 
	d="
M1326.945312,1242.842529 
	C1326.995239,1242.678833 1327.286743,1243.327637 1327.286743,1243.327637 
	C1327.286743,1243.327637 1327.028809,1242.619629 1326.792236,1242.791016 
	C1326.555542,1242.962402 1326.895264,1243.006348 1326.945312,1242.842529 
z"/>
<path fill="#F1F3F7" opacity="1.000000" stroke="none" 
	d="
M1457.851685,1033.784058 
	C1458.082764,1033.644043 1457.620605,1033.924072 1457.851685,1033.784058 
z"/>
<path fill="#F1F3F7" opacity="1.000000" stroke="none" 
	d="
M1289.872559,1197.796143 
	C1290.106934,1197.654907 1289.638184,1197.937500 1289.872559,1197.796143 
z"/>
<path fill="#F8FAFB" opacity="1.000000" stroke="none" 
	d="
M2343.716797,3328.800781 
	C2343.457764,3342.497070 2344.365234,3354.397949 2342.860352,3366.851318 
	C2331.283447,3369.338135 2320.798340,3368.294678 2310.456543,3367.911377 
	C2305.959961,3356.170654 2305.298096,3340.135254 2308.181885,3314.819580 
	C2313.308838,3310.539307 2319.541260,3312.665771 2325.307129,3312.401611 
	C2330.521973,3312.162354 2335.775879,3312.777100 2342.083008,3313.064209 
	C2342.672119,3318.068115 2343.194092,3322.500977 2343.716797,3328.800781 
z"/>
<path fill="#F8FAFB" opacity="1.000000" stroke="none" 
	d="
M1376.381592,3343.828613 
	C1376.193970,3352.231689 1376.006348,3358.738525 1375.803833,3365.763916 
	C1364.254028,3370.436279 1353.229736,3367.813965 1342.557983,3367.801270 
	C1337.876831,3355.371094 1337.232788,3338.136475 1340.404907,3314.918701 
	C1345.446899,3310.577393 1351.639282,3312.730713 1357.360596,3312.365967 
	C1362.569702,3312.034180 1367.816650,3312.295898 1373.293457,3312.295898 
	C1378.569580,3322.330322 1375.479980,3332.364014 1376.381592,3343.828613 
z"/>
<path fill="#F1F3F7" opacity="1.000000" stroke="none" 
	d="
M3140.192383,3329.004883 
	C3140.457764,3323.221680 3140.722168,3319.321045 3141.039307,3314.638916 
	C3152.962402,3310.618896 3164.529541,3312.132812 3176.619629,3313.310791 
	C3177.465576,3316.226318 3178.802979,3318.694824 3178.808350,3321.166504 
	C3178.951416,3386.854736 3179.309082,3452.545898 3178.660156,3518.443848 
	C3166.067627,3523.172363 3154.472656,3521.554932 3142.717041,3520.252441 
	C3138.803467,3513.430420 3140.268555,3506.685059 3140.255859,3500.269531 
	C3140.144043,3443.808838 3140.191162,3387.348145 3140.192383,3329.004883 
z"/>
</svg>